<?xml version="1.0" encoding="UTF-8" ?><!-- By Patrick Stillhart -->
<svg width="177pt" height="98pt" viewBox="0 0 177 98" version="1.1" xmlns="http://www.w3.org/2000/svg">
<g id="#008bcbff">
<path fill="#008bcb" opacity="1.00" d=" M 1.75 2.50 C 12.20 2.65 22.68 2.07 33.09 3.14 C 37.14 3.71 41.48 4.54 44.64 7.33 C 48.32 10.86 48.16 16.49 47.35 21.13 C 46.53 25.51 42.21 27.99 38.16 28.76 C 42.06 29.51 46.23 31.03 48.34 34.65 C 51.82 40.56 51.29 49.23 45.80 53.77 C 41.11 57.53 34.87 58.70 29.00 58.76 C 19.92 58.75 10.83 58.74 1.75 58.76 C 1.76 40.00 1.75 21.25 1.75 2.50 M 18.50 13.99 C 18.50 17.49 18.50 21.00 18.50 24.50 C 22.31 24.38 26.55 25.16 29.92 22.94 C 32.59 21.25 32.27 16.88 29.59 15.37 C 26.22 13.47 22.19 14.10 18.50 13.99 M 18.50 47.52 C 22.67 47.43 27.15 47.85 31.00 45.93 C 34.34 44.22 34.35 38.79 30.99 37.11 C 27.17 35.05 22.65 35.92 18.50 35.75 C 18.50 39.67 18.50 43.60 18.50 47.52 Z" />
<path fill="#008bcb" opacity="1.00" d=" M 57.50 2.50 C 75.20 2.49 92.91 2.52 110.61 2.49 C 100.69 17.10 90.60 31.60 80.69 46.23 C 89.55 46.28 98.40 46.25 107.25 46.24 C 107.24 50.41 107.24 54.58 107.25 58.76 C 88.95 58.75 70.65 58.74 52.34 58.76 C 62.27 44.11 72.41 29.59 82.44 15.01 C 74.13 14.99 65.81 15.00 57.50 15.00 C 57.50 10.83 57.50 6.67 57.50 2.50 Z" />
<path fill="#008bcb" opacity="1.00" d=" M 119.76 2.76 C 137.43 2.73 155.09 2.78 172.76 2.73 C 162.90 17.29 152.86 31.72 142.98 46.26 C 151.74 46.24 160.49 46.27 169.25 46.24 C 169.24 50.50 169.25 54.75 169.25 59.00 C 150.99 59.00 132.73 59.01 114.47 58.99 C 124.46 44.38 134.54 29.83 144.59 15.25 C 136.31 15.24 128.04 15.26 119.76 15.24 C 119.75 11.08 119.75 6.92 119.76 2.76 Z" />
<path fill="#008bcb" opacity="1.00" d=" M 1.75 62.97 C 4.78 63.32 8.98 61.96 10.97 65.00 C 11.17 66.33 10.63 67.59 10.34 68.86 C 11.64 70.51 12.55 72.96 10.64 74.58 C 7.98 76.16 4.69 75.29 1.75 75.51 C 1.75 71.33 1.75 67.15 1.75 62.97 M 5.15 65.78 C 3.89 67.18 6.15 69.05 7.35 67.64 C 8.66 66.35 6.24 64.56 5.15 65.78 M 5.22 69.82 C 5.15 70.63 5.00 72.25 4.93 73.06 C 5.84 72.99 7.65 72.85 8.56 72.78 C 8.31 70.91 6.93 70.11 5.22 69.82 Z" />
<path fill="#008bcb" opacity="1.00" d=" M 13.25 63.00 C 14.06 63.00 15.69 63.00 16.50 63.00 C 16.50 67.16 16.50 71.32 16.50 75.48 C 15.69 75.49 14.07 75.51 13.26 75.52 C 13.25 71.35 13.25 67.18 13.25 63.00 Z" />
<path fill="#008bcb" opacity="1.00" d=" M 18.75 63.00 C 19.56 63.00 21.19 63.00 22.00 63.00 C 22.00 66.25 22.00 69.50 22.00 72.76 C 23.60 72.75 25.19 72.75 26.79 72.75 C 26.77 73.44 26.73 74.83 26.70 75.52 C 24.05 75.50 21.40 75.50 18.75 75.50 C 18.75 71.33 18.75 67.17 18.75 63.00 Z" />
<path fill="#008bcb" opacity="1.00" d=" M 28.00 62.97 C 30.75 63.08 33.67 62.64 36.27 63.76 C 40.56 65.94 40.28 73.22 35.84 75.11 C 33.29 75.78 30.61 75.43 28.00 75.52 C 28.00 71.33 28.00 67.15 28.00 62.97 M 31.55 73.05 C 33.08 72.64 35.27 72.66 35.71 70.74 C 36.89 67.89 34.43 65.30 31.55 65.42 C 31.49 67.96 31.49 70.50 31.55 73.05 Z" />
<path fill="#008bcb" opacity="1.00" d=" M 40.76 63.00 C 41.57 63.00 43.19 63.00 44.00 63.00 C 44.08 65.92 43.69 68.91 44.30 71.80 C 44.86 73.41 46.88 72.37 48.03 72.24 C 47.99 69.16 48.00 66.08 48.00 63.00 C 48.81 63.00 50.43 63.00 51.24 63.00 C 51.23 66.02 51.39 69.05 51.15 72.07 C 50.70 77.23 41.34 77.11 40.88 71.96 C 40.59 68.98 40.78 65.98 40.76 63.00 Z" />
<path fill="#008bcb" opacity="1.00" d=" M 53.50 63.00 C 54.33 63.00 55.99 63.00 56.83 63.00 C 58.20 65.31 59.57 67.62 60.98 69.91 C 61.00 67.61 61.00 65.30 61.00 63.00 C 61.81 63.00 63.44 63.00 64.25 63.00 C 64.24 67.16 64.25 71.31 64.25 75.47 C 63.21 75.49 62.18 75.52 61.14 75.56 C 59.53 73.03 57.99 70.45 56.48 67.86 C 56.50 70.40 56.50 72.95 56.50 75.50 C 55.75 75.50 54.25 75.50 53.50 75.50 C 53.50 71.33 53.50 67.17 53.50 63.00 Z" />
<path fill="#008bcb" opacity="1.00" d=" M 69.36 63.39 C 72.05 62.22 74.94 63.24 77.16 64.89 C 76.59 65.55 76.03 66.21 75.46 66.87 C 73.83 66.45 71.89 64.91 70.32 66.32 C 68.59 68.08 68.76 71.78 71.25 72.77 C 72.64 73.17 73.80 72.30 74.89 71.61 C 74.18 71.37 72.76 70.88 72.05 70.64 C 72.14 70.10 72.30 69.01 72.39 68.47 C 74.09 68.49 75.79 68.50 77.50 68.52 C 77.50 70.82 77.50 73.13 77.50 75.44 C 75.10 75.23 72.71 75.70 70.32 75.66 C 64.64 74.68 64.14 65.37 69.36 63.39 Z" />
<path fill="#008bcb" opacity="1.00" d=" M 78.76 65.01 C 81.37 62.34 85.22 62.52 88.38 64.08 C 87.98 64.94 87.59 65.81 87.20 66.67 C 85.35 65.93 83.43 65.22 81.46 66.02 C 83.37 67.32 85.60 68.07 87.51 69.37 C 88.71 71.01 88.52 73.66 86.72 74.79 C 84.09 76.70 80.69 75.51 78.09 74.21 C 78.46 73.59 79.21 72.34 79.59 71.71 C 80.97 72.14 85.20 74.47 84.67 71.54 C 83.08 70.69 81.32 70.19 79.82 69.20 C 78.77 68.11 79.14 66.37 78.76 65.01 Z" />
<path fill="#008bcb" opacity="1.00" d=" M 89.23 63.01 C 92.49 63.00 95.74 63.00 99.00 63.00 C 99.00 63.66 99.00 64.97 99.00 65.63 C 97.12 67.98 95.27 70.35 93.44 72.74 C 95.37 72.75 97.30 72.76 99.23 72.76 C 99.24 73.45 99.25 74.81 99.26 75.50 C 95.71 75.50 92.16 75.53 88.61 75.45 C 89.36 71.51 92.64 68.88 94.84 65.74 C 92.98 65.75 91.12 65.75 89.26 65.75 C 89.25 65.07 89.24 63.70 89.23 63.01 Z" />
<path fill="#008bcb" opacity="1.00" d=" M 100.75 63.00 C 103.58 63.00 106.40 63.00 109.23 63.00 C 109.24 63.69 109.26 65.08 109.27 65.77 C 107.62 65.75 105.96 65.74 104.31 65.73 C 104.28 66.22 104.21 67.22 104.17 67.71 C 105.78 67.74 107.39 67.75 109.00 67.77 C 109.00 68.45 109.00 69.82 109.00 70.50 C 107.42 70.50 105.84 70.50 104.26 70.49 C 104.25 71.05 104.24 72.18 104.24 72.74 C 105.99 72.74 107.74 72.75 109.50 72.76 C 109.50 73.44 109.50 74.81 109.50 75.50 C 106.58 75.50 103.67 75.50 100.75 75.50 C 100.75 71.33 100.75 67.17 100.75 63.00 Z" />
<path fill="#008bcb" opacity="1.00" d=" M 111.25 63.00 C 112.37 63.00 113.49 63.00 114.61 63.01 C 115.97 65.32 117.34 67.63 118.75 69.90 C 118.76 67.60 118.75 65.30 118.75 63.00 C 119.56 63.00 121.19 63.00 122.00 63.00 C 122.00 67.16 122.00 71.33 122.00 75.50 C 121.19 75.50 119.58 75.50 118.78 75.50 C 117.25 72.97 115.73 70.44 114.23 67.90 C 114.24 70.42 114.25 72.95 114.26 75.48 C 113.51 75.49 112.01 75.51 111.26 75.52 C 111.24 71.35 111.25 67.17 111.25 63.00 Z" />
<path fill="#008bcb" opacity="1.00" d=" M 123.00 63.00 C 126.33 63.00 129.67 63.00 133.00 63.00 C 133.00 63.68 133.00 65.05 133.00 65.74 C 132.19 65.75 130.57 65.76 129.76 65.77 C 129.75 69.02 129.75 72.27 129.74 75.52 C 128.93 75.51 127.31 75.49 126.50 75.48 C 126.50 72.24 126.50 68.99 126.50 65.75 C 125.62 65.75 123.87 65.75 123.00 65.75 C 123.00 65.06 123.00 63.69 123.00 63.00 Z" />
<path fill="#008bcb" opacity="1.00" d=" M 134.25 62.97 C 137.10 63.19 140.40 62.39 142.89 64.15 C 144.99 66.19 143.74 69.08 142.03 70.88 C 142.94 72.42 143.84 73.97 144.75 75.52 C 143.49 75.50 142.24 75.49 140.98 75.48 C 139.95 73.74 138.90 72.00 137.68 70.38 C 137.57 72.08 137.49 73.78 137.44 75.49 C 136.64 75.50 135.06 75.51 134.26 75.52 C 134.25 71.33 134.25 67.15 134.25 62.97 M 138.12 66.35 C 137.57 67.96 138.13 68.51 139.81 68.01 C 140.38 66.40 139.82 65.85 138.12 66.35 Z" />
<path fill="#008bcb" opacity="1.00" d=" M 145.76 63.00 C 146.57 63.00 148.19 63.00 149.00 63.00 C 149.00 66.14 149.00 69.29 148.98 72.44 C 150.13 72.35 152.05 73.33 152.62 71.85 C 152.92 68.91 152.72 65.95 152.74 63.00 C 153.62 63.00 155.37 63.00 156.25 63.00 C 156.22 66.01 156.42 69.03 156.06 72.02 C 155.60 76.81 147.32 77.20 145.92 72.89 C 145.56 69.60 145.80 66.29 145.76 63.00 Z" />
<path fill="#008bcb" opacity="1.00" d=" M 158.55 62.99 C 159.90 63.00 161.25 63.00 162.60 63.01 C 163.41 65.74 164.24 68.47 165.10 71.19 C 165.90 68.50 166.71 65.81 167.48 63.11 C 168.89 63.04 170.31 63.00 171.73 62.95 C 171.69 67.14 171.99 71.32 172.05 75.50 C 171.22 75.50 169.57 75.50 168.74 75.49 C 168.76 73.05 168.78 70.61 168.79 68.17 C 167.97 70.53 167.41 72.99 166.37 75.27 C 165.68 75.39 164.29 75.63 163.59 75.75 C 162.81 73.23 162.04 70.70 161.23 68.19 C 161.22 70.62 161.24 73.04 161.26 75.47 C 160.48 75.49 158.91 75.54 158.13 75.56 C 158.24 71.37 158.29 67.18 158.55 62.99 Z" />
<path fill="#008bcb" opacity="1.00" d=" M 25.95 77.57 C 27.35 77.11 27.84 77.59 27.43 78.99 C 26.02 79.46 25.53 78.98 25.95 77.57 Z" />
<path fill="#008bcb" opacity="1.00" d=" M 28.95 77.57 C 30.35 77.11 30.84 77.59 30.43 78.99 C 29.02 79.46 28.53 78.98 28.95 77.57 Z" />
<path fill="#008bcb" opacity="1.00" d=" M 1.74 80.50 C 5.06 80.49 8.38 80.47 11.70 80.59 C 9.24 84.82 6.27 88.73 3.49 92.75 C 6.31 92.95 9.47 92.04 11.97 93.79 C 8.44 94.13 4.89 94.02 1.35 93.91 C 3.47 89.64 6.57 85.98 9.17 82.01 C 6.70 82.00 4.23 82.00 1.76 82.00 L 1.74 80.50 Z" />
<path fill="#008bcb" opacity="1.00" d=" M 23.45 90.68 C 23.14 86.94 22.82 83.02 24.00 79.39 C 25.46 83.09 24.19 87.14 25.09 90.93 C 26.02 93.77 31.10 93.39 31.37 90.32 C 31.69 87.06 31.44 83.76 31.50 80.49 L 32.99 80.50 C 32.94 83.97 33.20 87.46 32.84 90.92 C 32.11 95.60 23.96 95.33 23.45 90.68 Z" />
<path fill="#008bcb" opacity="1.00" d=" M 45.52 80.39 C 48.27 80.73 52.61 79.84 53.70 83.26 C 54.51 85.59 52.74 87.30 51.06 88.57 C 52.42 90.45 53.70 92.38 54.88 94.38 C 51.03 93.82 50.91 88.63 47.20 87.69 C 47.04 89.79 46.99 91.90 46.96 94.00 L 45.50 94.00 C 45.50 89.46 45.49 84.93 45.52 80.39 M 47.00 81.89 C 47.00 83.63 47.00 85.38 47.01 87.13 C 49.07 87.04 52.91 87.16 52.26 84.02 C 51.95 81.42 48.82 82.12 47.00 81.89 Z" />
<path fill="#008bcb" opacity="1.00" d=" M 66.26 94.00 C 66.52 89.14 65.55 84.12 67.00 79.39 C 68.46 84.11 67.48 89.14 67.74 94.00 C 67.37 94.00 66.63 94.00 66.26 94.00 Z" />
<path fill="#008bcb" opacity="1.00" d=" M 82.40 81.37 C 85.18 79.56 90.35 80.26 90.60 84.25 C 89.05 83.37 87.64 82.19 85.91 81.68 C 80.36 81.81 79.43 90.87 84.39 92.60 C 86.84 93.33 88.94 91.28 91.23 90.73 C 89.40 94.30 84.37 95.56 81.43 92.58 C 78.81 89.51 78.90 83.79 82.40 81.37 Z" />
<path fill="#008bcb" opacity="1.00" d=" M 102.26 94.00 C 102.52 89.14 101.54 84.11 103.00 79.39 C 103.83 81.59 103.76 83.95 103.83 86.26 C 106.22 86.25 108.61 86.25 111.00 86.25 C 111.00 84.33 111.00 82.42 111.01 80.50 L 112.49 80.48 C 112.50 84.99 112.50 89.49 112.50 94.00 L 111.00 94.00 C 111.00 91.83 111.00 89.66 110.99 87.49 C 108.58 87.50 106.17 87.50 103.75 87.51 C 103.75 89.67 103.75 91.84 103.75 94.00 C 103.37 94.00 102.63 94.00 102.26 94.00 Z" />
<path fill="#008bcb" opacity="1.00" d=" M 124.99 85.82 C 123.29 83.19 126.10 79.80 129.00 80.46 C 130.99 80.22 132.13 81.97 133.36 83.18 C 130.99 82.77 127.82 80.42 126.03 83.13 C 125.44 85.93 129.14 86.03 130.80 87.30 C 133.34 88.10 133.47 91.97 131.44 93.38 C 128.84 95.18 124.45 94.26 123.77 90.86 C 125.25 91.52 126.65 92.35 128.17 92.93 C 129.85 93.04 131.66 91.96 131.46 90.07 C 129.96 87.85 126.75 87.78 124.99 85.82 Z" />
<path fill="#008bcb" opacity="1.00" d=" M 144.75 80.50 C 147.34 80.50 149.93 80.50 152.51 80.50 L 152.50 81.99 C 150.41 82.00 148.33 82.00 146.25 82.00 C 146.25 83.42 146.24 84.84 146.24 86.25 C 148.16 86.25 150.08 86.25 152.00 86.25 L 152.01 87.50 C 150.09 87.50 148.17 87.50 146.25 87.50 C 146.25 89.24 146.25 90.98 146.24 92.72 C 148.71 92.73 151.18 92.74 153.63 93.01 C 150.99 94.71 147.70 93.79 144.75 94.01 C 144.75 89.50 144.75 85.00 144.75 80.50 Z" />
<path fill="#008bcb" opacity="1.00" d=" M 164.50 80.50 C 167.09 80.50 169.67 80.50 172.26 80.50 L 172.24 82.00 C 170.16 82.00 168.08 82.00 166.00 82.00 C 166.00 83.42 166.00 84.83 166.00 86.25 C 168.00 86.25 170.00 86.25 172.00 86.25 L 172.01 87.50 C 170.00 87.50 168.00 87.50 166.01 87.49 C 166.00 89.25 166.00 91.00 166.00 92.75 C 168.16 92.75 170.32 92.75 172.49 92.75 L 172.51 94.00 C 169.84 94.00 167.17 94.00 164.50 94.00 C 164.50 89.50 164.50 85.00 164.50 80.50 Z" />
</g>
</svg>
